<svg width="846" height="846" viewBox="0 0 846 846" fill="none" xmlns="http://www.w3.org/2000/svg">
<path d="M0 423C0 189.384 189.384 0 423 0V0C656.616 0 846 189.384 846 423V423C846 656.616 656.616 846 423 846V846C189.384 846 0 656.616 0 423V423Z" fill="black"/>
<g filter="url(#filter0_d_257_25)">
<path d="M177.154 267.077L141.654 215.077C136.154 209.577 133.654 279.577 134.154 292.577C134.554 302.977 144.988 299.244 150.154 296.077C153.357 294.247 167.654 284.31 175.654 284.077C176.797 284.044 177.965 283.95 179.154 284.077C187.154 281.577 180.654 271.911 177.154 267.077Z" fill="white"/>
<path d="M366.654 155.577L351.654 86.0771C345.654 71.5771 319.654 137.077 314.654 156.077C310.654 171.277 322.987 169.41 329.654 166.577C336.654 166.077 352.254 165.177 358.654 165.577C365.054 165.977 366.654 159.077 366.654 155.577Z" fill="white"/>
<path d="M480.154 152.077L495.154 86.5771C502.653 74.0771 523.154 140.077 528.654 153.077C534.154 166.077 533.154 168.077 530.154 169.077C527.154 170.077 522.654 169.077 515.154 166.577C507.654 164.077 493.654 166.577 484.654 167.077C477.454 167.477 478.654 157.244 480.154 152.077Z" fill="white"/>
<path d="M664.654 272.077L704.154 217.577C714.153 208.577 712.154 265.577 712.654 283.577C713.154 301.577 708.154 301.577 700.654 300.077C693.154 298.577 690.154 283.077 672.154 286.577C657.754 289.377 661.154 278.077 664.654 272.077Z" fill="white"/>
<path d="M132.736 417.079C126.306 338.018 163.655 312.577 180.236 309.579C227.677 304.577 273.177 392.077 271.178 453.079C271.178 470.579 265.178 531.579 221.678 535.579C203.74 537.228 141.683 527.079 132.736 417.079Z" fill="white"/>
<path d="M402.655 356.076V271.576C402.655 233.077 386.755 188.576 347.155 192.576C297.655 197.576 273.655 247.076 277.155 302.576C280.655 358.076 311.155 403.576 354.155 408.576C388.555 412.576 400.822 375.242 402.655 356.076Z" fill="white"/>
<path d="M445.154 356.328V271.829C445.154 233.33 461.054 188.829 500.654 192.829C550.154 197.829 574.154 247.329 570.654 302.829C567.154 358.329 536.654 403.828 493.654 408.828C459.254 412.828 446.987 375.495 445.154 356.328Z" fill="white"/>
<path d="M712.653 413.577C706.253 326.777 671.987 308.744 655.653 310.577C637.653 310.577 583.153 324.577 574.653 436.577C567.853 526.177 615.487 540.91 640.153 537.077C666.987 532.077 719.053 500.377 712.653 413.577Z" fill="white"/>
<path d="M460.654 730.077C432.254 739.677 394.821 734.077 379.654 730.077C370.154 727.077 341.354 729.177 302.154 761.577C247.654 785.578 240.154 701.077 242.654 671.577C245.154 642.077 271.154 521.577 326.654 489.577C382.154 457.577 398.154 492.077 424.654 492.077C451.154 492.077 480.654 458.077 517.654 489.577C594.454 542.377 607.321 646.244 604.154 691.577C596.654 760.577 575.154 767.077 538.654 761.577C502.154 756.077 496.154 718.077 460.654 730.077Z" fill="white"/>
</g>
<defs>
<filter id="filter0_d_257_25" x="128" y="84" width="589.193" height="689.813" filterUnits="userSpaceOnUse" color-interpolation-filters="sRGB">
<feFlood flood-opacity="0" result="BackgroundImageFix"/>
<feColorMatrix in="SourceAlpha" type="matrix" values="0 0 0 0 0 0 0 0 0 0 0 0 0 0 0 0 0 0 127 0" result="hardAlpha"/>
<feOffset dy="4"/>
<feGaussianBlur stdDeviation="2"/>
<feComposite in2="hardAlpha" operator="out"/>
<feColorMatrix type="matrix" values="0 0 0 0 0 0 0 0 0 0 0 0 0 0 0 0 0 0 0.25 0"/>
<feBlend mode="normal" in2="BackgroundImageFix" result="effect1_dropShadow_257_25"/>
<feBlend mode="normal" in="SourceGraphic" in2="effect1_dropShadow_257_25" result="shape"/>
</filter>
</defs>
</svg>
